HIERARCHY
ROOT Hips
{
	OFFSET 0.000000 0.000000 0.000000
	CHANNELS 6 Xposition Yposition Zposition Zrotation Yrotation Xrotation 
	JOINT LHipJoint
	{
		OFFSET 0.000000 0.000000 0.000000
		CHANNELS 3 Zrotation Yrotation Xrotation
		JOINT LeftUpLeg
		{
			OFFSET 1.363060 -1.794630 0.839290
			CHANNELS 3 Zrotation Yrotation Xrotation
			JOINT LeftLeg
			{
				OFFSET 2.448110 -6.726130 0.000000
				CHANNELS 3 Zrotation Yrotation Xrotation
				JOINT LeftFoot
				{
					OFFSET 2.562200 -7.039590 0.000000
					CHANNELS 3 Zrotation Yrotation Xrotation
					JOINT LeftToeBase
					{
						OFFSET 0.157640 -0.433110 2.322550
						CHANNELS 3 Zrotation Yrotation Xrotation
						End Site
						{
							OFFSET 0.000000 0.000000 0.000000
						}
					}
				}
			}
		}
	}
	JOINT RHipJoint
	{
		OFFSET 0.000000 0.000000 0.000000
		CHANNELS 3 Zrotation Yrotation Xrotation
		JOINT RightUpLeg
		{
			OFFSET -1.305520 -1.794630 0.839290
			CHANNELS 3 Zrotation Yrotation Xrotation
			JOINT RightLeg
			{
				OFFSET -2.542530 -6.985550 0.000000
				CHANNELS 3 Zrotation Yrotation Xrotation
				JOINT RightFoot
				{
					OFFSET -2.568260 -7.056230 0.000000
					CHANNELS 3 Zrotation Yrotation Xrotation
					JOINT RightToeBase
					{
						OFFSET -0.164730 -0.452590 2.363150
						CHANNELS 3 Zrotation Yrotation Xrotation
						End Site
						{
							OFFSET 0.000000 0.000000 0.000000
						}
					}
				}
			}
		}
	}
}
MOTION
Frames: 22
Frame Time: 0.008333
0.138563 17.223922 0.127251 5.934192 72.278185 39.352782 -7.841627 -0.409224 -0.037679 -18.947757 1.747226 -58.907371 -4.676562 0.121570 10.613295 -0.244373 0.644703 12.443063 1.006300 0.000000 -50.571900 11.349430 -0.826432 -3.517019 9.709862 -6.000691 -27.754031 1.051373 -2.868780 39.235439 -0.302988 0.222224 6.161637 -0.079500 0.000001 -65.010700
0.338602 17.178281 0.163269 5.304836 71.764407 38.739713 -7.825808 -0.409028 -0.049107 -18.753505 1.822366 -59.081185 -4.607345 0.225500 11.619679 -0.202450 0.811390 11.937105 1.052500 0.000000 -49.883600 11.455320 -0.827064 -3.487978 9.344336 -5.964282 -27.926183 0.945762 -2.985314 40.853775 -0.358589 -0.034538 5.773801 -0.121600 -0.000000 -64.124700
0.536269 17.121289 0.198609 4.768489 71.249669 38.208499 -7.805373 -0.413523 -0.054000 -18.432168 1.776114 -59.264533 -4.494498 0.357808 13.003653 -0.124814 1.128836 11.093120 1.136499 -0.000000 -48.726300 11.564445 -0.811102 -3.480973 8.957515 -5.965286 -28.197041 0.833813 -3.119010 42.724516 -0.429819 -0.412691 5.137709 -0.187500 0.000000 -63.241101
0.731470 17.053190 0.233125 4.316115 70.733608 37.750328 -7.778273 -0.421925 -0.058915 -18.035811 1.634155 -59.488119 -4.347187 0.518572 14.769477 -0.016279 1.550371 9.901248 1.230600 0.000000 -47.161700 11.676801 -0.780087 -3.491689 8.547574 -5.998892 -28.560801 0.714859 -3.268505 44.818794 -0.515255 -0.901931 4.290186 -0.267601 -0.000000 -62.372700
0.924174 16.974353 0.266312 3.892924 70.213541 37.312190 -7.746588 -0.435715 -0.077175 -17.622347 1.458414 -59.812566 -4.176853 0.715146 16.961191 0.114391 1.996398 8.335758 1.294000 0.000000 -45.168500 11.787020 -0.739251 -3.511919 8.132771 -6.042251 -29.007883 0.587665 -3.430596 47.102016 -0.613733 -1.493256 3.273794 -0.352100 -0.000001 -61.516499
1.113919 16.885551 0.298703 3.537931 69.682620 36.927696 -7.705426 -0.454216 -0.117446 -17.249353 1.269631 -60.237828 -3.992315 0.943038 19.538053 0.266598 2.461643 6.436928 1.315300 0.000001 -42.959100 11.901291 -0.686670 -3.538780 7.687475 -6.099245 -29.533321 0.451636 -3.605566 49.544781 -0.721248 -2.151573 2.126358 -0.425799 0.000000 -60.662200
1.300686 16.787578 0.329570 3.157779 69.135151 36.509026 -7.663003 -0.483931 -0.192246 -16.938224 1.140910 -60.821594 -3.800494 1.210582 22.532669 0.433342 2.888111 4.203010 1.266500 -0.000000 -40.482200 12.009349 -0.629631 -3.563018 7.250407 -6.130029 -30.126628 0.304901 -3.788345 52.110164 -0.835978 -2.864156 0.892287 -0.481399 0.000000 -59.792101
1.483873 16.681722 0.359480 2.781552 68.563086 36.079975 -7.617758 -0.526091 -0.307939 -16.715198 1.090011 -61.539708 -3.605972 1.510890 25.870878 0.615697 3.298994 1.707802 1.152000 0.000000 -37.926400 12.116239 -0.566271 -3.583198 6.802849 -6.133549 -30.781816 0.146979 -3.978846 54.768600 -0.952619 -3.590375 -0.393840 -0.508500 0.000000 -58.890500
1.663110 16.569437 0.388546 2.393822 67.961617 35.624596 -7.573122 -0.583425 -0.468137 -16.581520 1.140783 -62.376535 -3.410822 1.839037 29.485118 0.812778 3.708335 -0.977889 0.974400 -0.000000 -35.392700 12.221069 -0.497574 -3.597113 6.350748 -6.095848 -31.492476 -0.022718 -4.175181 57.489280 -1.066646 -4.299736 -1.699597 -0.503000 0.000000 -57.944799
1.838091 16.452455 0.416893 1.985811 67.329199 35.135905 -7.532720 -0.656947 -0.670965 -16.523498 1.299862 -63.300558 -3.214889 2.186704 33.282573 1.024017 4.141911 -3.765985 0.740600 0.000000 -33.013900 12.322998 -0.423599 -3.604331 5.900793 -6.006832 -32.254603 -0.204385 -4.375400 60.242038 -1.173680 -4.964458 -2.996270 -0.464800 0.000000 -56.954600
2.008243 16.332798 0.445227 1.597663 66.669732 34.647953 -7.494935 -0.742566 -0.913851 -16.544151 1.556967 -64.254076 -3.019518 2.541754 37.145687 1.247464 4.626083 -6.558968 0.458800 0.000000 -30.942300 12.426953 -0.341779 -3.607421 5.438311 -5.875648 -33.064220 -0.397112 -4.580279 62.999424 -1.268801 -5.553781 -4.265217 -0.396200 0.000001 -55.920900
2.173270 16.212550 0.474050 1.252856 65.992017 34.181649 -7.459607 -0.835263 -1.190884 -16.636423 1.896615 -65.184020 -2.825096 2.892895 40.965846 1.479078 5.173473 -9.269215 0.134700 -0.000000 -29.300700 12.534845 -0.250679 -3.608892 4.959200 -5.710844 -33.917984 -0.599786 -4.789684 65.733470 -1.348648 -6.048335 -5.491406 -0.303000 -0.000000 -54.856100
2.333012 16.093839 0.503814 0.974424 65.309554 33.756401 -7.426305 -0.929036 -1.494682 -16.791351 2.298436 -66.038150 -2.632536 3.229462 44.644544 1.713202 5.783676 -11.824549 -0.225300 0.000000 -28.176400 12.647459 -0.149133 -3.611803 4.463105 -5.525448 -34.812214 -0.810915 -5.003242 68.416741 -1.411418 -6.438403 -6.665224 -0.193000 0.000000 -53.778699
2.487494 15.978689 0.534913 0.783027 64.639436 33.388451 -7.394366 -1.017427 -1.817563 -17.001116 2.740039 -66.767733 -2.443928 3.542147 48.099596 1.942945 6.442484 -14.173077 -0.613599 0.000000 -27.603100 12.764791 -0.036302 -3.619364 3.950993 -5.336525 -35.741639 -1.028577 -5.220382 71.022878 -1.456695 -6.722226 -7.781948 -0.073700 -0.000000 -52.706500
2.636871 15.868872 0.567703 0.693197 63.999983 33.087944 -7.363333 -1.094776 -2.151776 -17.255276 3.198793 -67.330864 -2.262314 3.823427 51.269275 2.161385 7.126119 -16.286512 -1.020301 0.000000 -27.551000 12.885926 0.088234 -3.634836 3.427558 -5.162500 -36.699611 -1.250533 -5.440222 73.528429 -1.485553 -6.906449 -8.842214 0.048200 -0.000000 -51.651300
2.781685 15.765883 0.602060 0.695624 63.408928 32.844513 -7.335907 -1.157650 -2.488159 -17.531798 3.656085 -67.700100 -2.091075 4.068682 54.114517 2.362350 7.804793 -18.159273 -1.433800 -0.000000 -27.938700 13.005953 0.223774 -3.660611 2.910880 -5.015988 -37.678970 -1.474100 -5.659689 75.909957 -1.500697 -7.006960 -9.846522 0.167100 0.000001 -50.628801
2.922520 15.670821 0.637993 0.783804 62.882302 32.651590 -7.313890 -1.203442 -2.818894 -17.813280 4.093559 -67.856696 -1.934225 4.275268 56.615344 2.541357 8.448854 -19.805008 -1.842600 -0.000000 -28.642400 13.121051 0.369864 -3.699040 2.415985 -4.910325 -38.672726 -1.696142 -5.876236 78.149314 -1.505155 -7.040912 -10.799583 0.280000 0.000000 -49.641299
3.060284 15.584492 0.675054 0.930437 62.431720 32.485550 -7.302102 -1.232003 -3.135467 -18.073094 4.500139 -67.797342 -1.795223 4.443540 58.770059 2.695829 9.031911 -21.251991 -2.236799 0.000000 -29.519900 13.224131 0.524773 -3.750934 1.968746 -4.850071 -39.673758 -1.912883 -6.085218 80.228742 -1.502654 -7.029275 -11.704033 0.385100 -0.000001 -48.691300
3.195747 15.507243 0.712966 1.116337 62.065331 32.332815 -7.303321 -1.243846 -3.431523 -18.293642 4.864691 -67.528688 -1.676613 4.575493 60.592128 2.825678 9.537100 -22.535613 -2.609800 -0.000001 -30.440900 13.310401 0.687557 -3.816804 1.587370 -4.839627 -40.679347 -2.120347 -6.283416 82.136995 -1.496192 -6.988204 -12.565077 0.482500 -0.000000 -47.772800
3.329831 15.439284 0.751285 1.311100 61.785319 32.171150 -7.321660 -1.241001 -3.700971 -18.455578 5.183738 -67.070927 -1.579744 4.675298 62.105851 2.932492 9.955315 -23.693762 -2.957900 -0.000000 -31.294500 13.373509 0.856041 -3.894994 1.294804 -4.874671 -41.687700 -2.314156 -6.466370 83.863158 -1.488497 -6.932054 -13.384513 0.572700 0.000000 -46.880500
3.463263 15.380520 0.789694 1.491704 61.589421 31.987011 -7.358971 -1.225837 -3.940253 -18.548650 5.456413 -66.451782 -1.504515 4.747988 63.343796 3.019483 10.288055 -24.760293 -3.280900 -0.000000 -32.011400 13.409422 1.028527 -3.982927 1.105848 -4.948758 -42.701362 -2.490079 -6.631024 85.400369 -1.481200 -6.868488 -14.164365 0.656700 -0.000000 -46.008600
3.596640 15.330782 0.827993 1.636644 61.470405 31.768189 -7.416024 -1.200954 -4.147557 -18.568373 5.687207 -65.704182 -1.449667 4.799023 64.341218 3.090715 10.545080 -25.761331 -3.580400 0.000000 -32.559500 13.415184 1.202906 -4.076406 1.031106 -5.050918 -43.724658 -2.644190 -6.774847 86.743434 -1.475039 -6.799945 -14.904295 0.735000 -0.000000 -45.155400
